<svg xmlns="http://www.w3.org/2000/svg" viewBox="0 0 1024 1024" width="1024" height="1024">
  <defs>
    <linearGradient id="spectrum" x1="0%" y1="0%" x2="100%" y2="0%">
      <stop offset="0%" stop-color="#7de3f4"/>
      <stop offset="25%" stop-color="#8b6df0"/>
      <stop offset="50%" stop-color="#e56ab3"/>
      <stop offset="75%" stop-color="#f28a4b"/>
      <stop offset="100%" stop-color="#f5f5f5"/>
    </linearGradient>
  </defs>
  <!-- Rounded black squircle background (macOS masks to a superellipse anyway) -->
  <rect x="0" y="0" width="1024" height="1024" rx="224" ry="224" fill="#0a0a0a"/>
  <path d="M189.080 713.600L99.080 713.600L99.080 188.000L189.080 188.000L189.080 401.120L330.200 401.120L330.200 188.000L420.200 188.000L420.200 713.600L330.200 713.600L330.200 482.480L189.080 482.480L189.080 713.600ZM924.920 843.200L827.720 843.200L753.560 720.800Q751.400 720.800 749.240 720.800L749.240 720.800Q698.840 720.800 661.400 701.360Q623.960 681.920 603.080 646.640Q582.200 611.360 582.200 563.840L582.200 563.840L582.200 337.760Q582.200 290.240 602.720 254.960Q623.240 219.680 661.040 200.240Q698.840 180.800 749.240 180.800L749.240 180.800Q799.640 180.800 837.080 200.240Q874.520 219.680 895.400 254.960Q916.280 290.240 916.280 337.760L916.280 337.760L916.280 563.840Q916.280 611.360 895.760 647.000Q875.240 682.640 837.800 701.360L837.800 701.360L924.920 843.200ZM749.240 641.600L749.240 641.600Q786.680 641.600 806.480 621.080Q826.280 600.560 826.280 563.840L826.280 563.840L826.280 337.760Q826.280 301.040 805.760 280.160Q785.240 259.280 749.240 259.280L749.240 259.280Q713.240 259.280 692.720 280.160Q672.200 301.040 672.200 337.760L672.200 337.760L672.200 563.840Q672.200 600.560 692 621.080Q711.800 641.600 749.240 641.600Z" fill="url(#spectrum)"/>
</svg>
